<svg width="670" height="250" viewBox="0 0 670 250" fill="none" xmlns="http://www.w3.org/2000/svg">
<path d="M50.5309 75.6828C49.2195 75.6828 48.9126 75.0415 49.5543 74.0378L56.4181 65.255C57.0599 64.2791 58.6782 63.6378 59.9895 63.6378H176.395C177.679 63.6378 178.013 64.6137 177.372 65.5896L171.819 74.0378C171.178 75.0415 169.531 75.9895 168.555 75.9895L50.5309 75.6828ZM1.31242 105.656C0.00104066 105.656 -0.333779 105.014 0.33586 104.039L7.17176 95.228C7.8135 94.2521 9.45969 93.6108 10.7711 93.6108H159.431C160.742 93.6108 161.384 94.5867 161.049 95.5625L158.454 103.369C158.12 104.68 156.836 105.321 155.525 105.321L1.31242 105.656ZM80.2182 135.629C78.9068 135.629 78.572 134.653 79.2417 133.677L83.7896 125.536C84.4314 124.56 85.7427 123.584 87.0541 123.584H152.26C153.572 123.584 154.213 124.56 154.213 125.87L153.572 133.677C153.572 134.987 152.26 135.963 151.284 135.963L80.2182 135.629ZM418.637 69.8276C398.101 75.0415 384.067 78.945 363.866 84.1589C358.955 85.4414 358.649 85.776 354.38 80.8967C349.525 75.3482 345.925 71.7793 339.09 68.5172C318.526 58.4239 298.632 61.3515 280.078 73.3965C257.896 87.7277 246.484 108.918 246.819 135.294C247.126 161.364 265.067 182.861 290.82 186.457C313.001 189.385 331.556 181.578 346.26 164.988C349.19 161.364 351.785 157.46 355.049 152.888H292.131C285.295 152.888 283.649 148.65 285.937 143.129C290.178 133.036 297.99 116.084 302.566 107.607C303.265 106.037 304.409 104.706 305.857 103.779C307.306 102.853 308.994 102.371 310.714 102.394H429.379C428.737 111.204 428.737 119.987 427.426 128.798C424.049 151.993 414.853 173.958 400.696 192.647C377.231 223.596 346.567 242.834 307.784 248.02C275.837 252.258 246.149 246.069 220.089 226.551C195.954 208.289 182.254 184.171 178.683 154.198C174.442 118.677 184.877 86.7519 206.389 58.7306C229.548 28.451 260.184 9.21251 297.683 2.40935C328.319 -3.16702 357.672 0.457609 384.067 18.3299C401.366 29.7614 413.726 45.3752 421.902 64.2791C423.855 67.2067 422.543 68.8517 418.637 69.8555M526.561 250C496.873 249.331 469.809 240.855 446.985 221.31C427.998 205.319 415.482 182.971 411.773 158.436C405.914 121.632 416.014 89.0382 438.196 60.0411C461.996 28.7577 490.679 12.4747 529.49 5.67151C562.749 -0.183674 594.055 3.02273 622.403 22.2612C648.156 39.8267 664.143 63.6378 668.385 94.8934C673.909 138.891 661.214 174.719 630.885 205.361C609.373 227.193 582.95 240.855 552.621 247.045C543.832 248.717 535.043 248.996 526.561 250ZM604.127 118.398C603.82 114.132 603.82 110.87 603.178 107.607C597.319 75.3482 567.632 57.1414 536.661 64.2791C506.332 71.1102 486.773 90.3486 479.602 120.963C473.743 146.391 486.131 172.126 509.596 182.582C527.537 190.389 545.45 189.385 562.749 180.63C588.502 167.247 602.509 146.391 604.155 118.37L604.127 118.398Z" fill="#00ADD8"/>
</svg>
