<svg width="250" height="250" viewBox="0 0 250 250" fill="none" xmlns="http://www.w3.org/2000/svg">
<path d="M11.7188 0C5.22917 0 0 5.22917 0 11.7188V238.281C0 244.771 5.22917 250 11.7188 250H238.281C244.771 250 250 244.771 250 238.281V11.7188C250 5.22917 244.771 0 238.281 0H11.7188ZM192.583 101.563C198.958 101.563 204.604 101.948 209.531 102.719C214.178 103.415 218.739 104.602 223.135 106.26V131.865C221.025 130.405 218.783 129.146 216.438 128.104C214.019 127.016 211.523 126.111 208.969 125.396C204.131 124.048 199.136 123.347 194.115 123.313C190.99 123.313 188.146 123.604 185.583 124.208C183.299 124.697 181.109 125.548 179.094 126.729C177.323 127.813 175.969 129.115 175 130.625C174.026 132.147 173.519 133.922 173.542 135.729C173.542 137.771 174.094 139.615 175.167 141.24C176.25 142.865 177.792 144.406 179.781 145.865C181.771 147.323 184.188 148.74 187.031 150.135C189.875 151.542 193.094 152.99 196.677 154.469C201.573 156.521 205.969 158.708 209.865 161.01C213.76 163.323 217.104 165.937 219.896 168.854C222.688 171.76 224.813 175.083 226.292 178.823C227.771 182.563 228.521 186.906 228.521 191.875C228.521 198.719 227.219 204.479 224.635 209.125C222.111 213.707 218.489 217.591 214.094 220.427C209.356 223.431 204.105 225.536 198.604 226.635C192.708 227.885 186.49 228.51 179.958 228.51C173.53 228.539 167.113 227.967 160.792 226.802C155.322 225.856 150.018 224.127 145.042 221.667V194.271C154.456 202.283 166.399 206.71 178.76 206.771C182.229 206.771 185.26 206.458 187.844 205.833C190.438 205.208 192.594 204.333 194.333 203.229C196.063 202.104 197.354 200.792 198.219 199.271C199.174 197.5 199.609 195.495 199.473 193.488C199.336 191.48 198.634 189.552 197.448 187.927C195.9 185.879 194.007 184.117 191.854 182.719C189.184 180.949 186.372 179.402 183.448 178.094C179.982 176.511 176.484 174.997 172.958 173.552C163.396 169.562 156.271 164.677 151.573 158.917C146.885 153.156 144.531 146.188 144.531 138.031C144.531 131.635 145.813 126.146 148.375 121.552C150.938 116.958 154.417 113.177 158.833 110.208C163.505 107.127 168.691 104.907 174.146 103.656C180.187 102.232 186.376 101.529 192.583 101.563ZM35.1563 103.521H134.771V126.083H99.0208V226.563H70.7188V126.083H35.1563V103.521Z" fill="#3178C6"/>
</svg>
